<?xml version="1.0" encoding="UTF-8"?>
<!DOCTYPE svg PUBLIC "-//W3C//DTD SVG 1.1//EN" "http://www.w3.org/Graphics/SVG/1.1/DTD/svg11.dtd">
<!-- Creator: CorelDRAW 2020 (64-Bit) -->
<svg xmlns="http://www.w3.org/2000/svg" xml:space="preserve" width="182.458mm" height="98.6273mm" version="1.1" style="shape-rendering:geometricPrecision; text-rendering:geometricPrecision; image-rendering:optimizeQuality; fill-rule:evenodd; clip-rule:evenodd"
viewBox="0 0 18595.14 10051.55"
 xmlns:xlink="http://www.w3.org/1999/xlink"
 xmlns:xodm="http://www.corel.com/coreldraw/odm/2003">
 <defs>
  <style type="text/css">
   <![CDATA[
    .fil9 {fill:none}
    .fil8 {fill:#EC268F}
    .fil7 {fill:#AAD044}
    .fil6 {fill:#9CCB48}
    .fil4 {fill:#8EC74A}
    .fil2 {fill:#73BF4F}
    .fil5 {fill:#63BC50}
    .fil10 {fill:url(#id0)}
    .fil3 {fill:url(#id1)}
    .fil0 {fill:url(#id2)}
    .fil1 {fill:url(#id3)}
   ]]>
  </style>
  <linearGradient id="id0" gradientUnits="userSpaceOnUse" x1="7263.69" y1="3961.23" x2="7263.69" y2="538.05">
   <stop offset="0" style="stop-opacity:1; stop-color:#E44E37"/>
   <stop offset="1" style="stop-opacity:1; stop-color:#F19249"/>
  </linearGradient>
  <linearGradient id="id1" gradientUnits="userSpaceOnUse" x1="7263.69" y1="3961.23" x2="7263.69" y2="538.05">
   <stop offset="0" style="stop-opacity:1; stop-color:#E34D38"/>
   <stop offset="1" style="stop-opacity:1; stop-color:#F4D545"/>
  </linearGradient>
  <linearGradient id="id2" gradientUnits="userSpaceOnUse" x1="13224.54" y1="10051.55" x2="13224.54" y2="555.45">
   <stop offset="0" style="stop-opacity:1; stop-color:#33BAB1"/>
   <stop offset="0.639216" style="stop-opacity:1; stop-color:#39BDE5"/>
   <stop offset="1" style="stop-opacity:1; stop-color:#37BEEE"/>
  </linearGradient>
  <linearGradient id="id3" gradientUnits="userSpaceOnUse" x1="16432.28" y1="3955.7" x2="15507.85" y2="554.68">
   <stop offset="0" style="stop-opacity:1; stop-color:#BD5A38"/>
   <stop offset="0.478431" style="stop-opacity:1; stop-color:#C16338"/>
   <stop offset="1" style="stop-opacity:1; stop-color:#FCB52F"/>
  </linearGradient>
 </defs>
 <g id="Capa_x0020_1">
  <metadata id="CorelCorpID_0Corel-Layer"/>
  <g id="_2276711234768">
   <path class="fil0" d="M9426.49 3627.72l0.43 -46.04c49.17,-21.48 158.65,1.34 224.17,-2.91 76.19,-4.94 139.79,-15.28 212.74,-35.69 163.63,-45.79 216.9,-110.85 343.65,-164.65 -117.84,162.86 -612.53,348.48 -780.98,249.3zm-868.98 2834.07c-113.48,86.92 -453.13,798.89 -513.9,964.47 -268.13,730.45 -316.69,1680.5 287.74,2264.94 255.34,246.89 718.09,413.4 1083.24,344.84 325.65,-61.14 729.27,-289.69 959.72,-515.36 487.6,-477.48 827.93,-1272.27 993.78,-1935.81 51.65,-206.66 87.27,-400.79 129.05,-609.41 39.98,-199.61 55.84,-430.91 107.57,-621 -126.95,3.57 -296.02,-19.92 -421.15,-45.73 -99.49,-20.53 -293.29,-66.53 -384.89,-73.48 -19.76,38.51 -79.02,410.53 -94.76,490.25 -85.13,431.25 -242.55,1013.26 -399.65,1413.46 -222.3,566.3 -508.95,1237.09 -1256.9,1133.31 -313.57,-43.51 -477.71,-398.26 -510.55,-685.26 -77.5,-677.52 185.65,-1288.49 526.8,-1850.22 69.96,-115.19 162.88,-251.26 247.13,-357.55 75.36,-95.06 209.21,-246.35 265.46,-338.14 -232.1,28.08 -372.33,31.56 -589.01,134.3 -83.61,39.64 -155.52,81.86 -230.88,136.29 -45.61,32.95 -168.87,140.12 -198.78,150.1zm3621.55 -2404.58c170.39,-24.92 280.8,-23.92 507.44,39.95 139.15,39.23 408.09,159 500.04,266.56 -225.93,-74.01 -370.57,-170.99 -633,-204.97 -559.68,-72.45 -901.38,233.72 -1309.72,352.72 -144.93,42.24 -602.08,66.83 -704.05,-28.33 -365.4,242.92 -757.65,573.12 -1059.54,872.91 -169.7,168.52 -818.56,854.73 -876.38,1048.47 99,-45.15 140.88,-165.75 428.93,-302.65 148.02,-70.35 269.26,-98.12 426.54,-119.71l119.03 -15.28c81.62,12.29 19.83,-3.44 49.71,24.49 207.52,-203.13 282.02,-326.54 570.58,-579.48 104.59,-91.68 561.34,-491.27 669.13,-483.97 56.82,334.07 -30.81,849.36 -54.63,1190.19 102.64,5.74 280.1,47.15 395.85,64.18 132.17,19.44 280.23,28.66 406.24,52.4 94.55,-290.03 27.39,-1366.88 55.98,-1679.71 322.05,-153.65 1468.03,-188.77 1858.92,-154.23 324.82,28.69 606.85,59.4 928.82,102.49 298.25,39.91 591.76,104.92 888.9,148.23 857.65,125.02 1858.98,338.29 2682.26,-71.33 164.7,-81.95 483.31,-303.13 565.04,-463.11 -98.76,68.77 -174.19,139.56 -284.98,211.03 -337.56,217.79 -743.22,324.05 -1144.99,323.8 -391.69,-0.23 -1263.56,-178.45 -1702.92,-251.71 -567.28,-94.58 -1120.53,-200.52 -1695.88,-279.83 -204.34,-28.17 -1024.04,-117.58 -1498.67,-116.18 -145.58,0.43 -390.06,21.73 -539.11,43.48 -40.29,5.88 -80.2,10.4 -118.13,6.82 -44.18,-100.95 -186.57,-1042.81 -195.58,-1194.2 41.47,-83.05 59.21,-90.53 89.29,-191.18 119.89,-344.86 -110.11,-2021.77 -674.5,-2108.39 -197.77,-30.35 -401.49,73.32 -428.59,281.37 -23.87,183.19 54.28,452.15 90.02,634.5 42.88,218.71 169.09,1103.46 148.6,1280.4 -123.72,147.91 -196.47,254.38 -344.85,378.77 -114.28,95.81 -301.09,276.95 -461.43,247.72 -107.87,-136.86 2.24,-1058.15 12.05,-1288.94 6.01,-356.19 72.41,-732.67 -194.85,-1090.05 -216.07,-288.91 -568.19,-474.65 -956.98,-410.47 -60.07,55.88 -63.02,58.06 -55.04,144.93 53.8,137.71 432.08,-18.53 678.04,348.71 195.06,291.25 166.34,881.01 104.81,1233.89 -18.39,105.38 -31.49,240.73 -37.24,347.92 -13.2,245.93 -15.63,494.97 -4.93,741.64 16.81,83.01 31.2,228.24 39.45,320.17 66.94,109.94 99.77,196.01 245.28,237.45 134.22,38.23 277.79,-24.36 398.37,-76.35 111.4,-48.04 226.99,-107.05 332.29,-170.37 83.33,-50.11 231.36,-156.08 317.41,-185.69 22.12,181.89 102.11,612.94 89.05,769.91l-221.49 159.37c305.36,28.61 500.48,25.11 780.32,-103.1 103.02,-47.2 201.83,-102.11 306.8,-149.48 165.69,-74.77 333.24,-129.61 512.29,-155.77zm-1539.36 -1300.28l10.34 -57.26c250.13,-59.56 482.22,-151.4 740.01,-54.57l-21.58 9.53c-217,-6.09 -520.63,46.56 -724.62,130.86l-4.16 -28.57z"/>
   <path class="fil1" d="M16273.22 3381.46c88.41,-68.49 255.99,-222.15 334.5,-263.75 243.87,243.42 194.51,460.95 668.84,603.89 252.24,76.01 1027.16,102.85 990.04,-166.6 -34.42,-249.79 -634.43,-16.04 -921.38,-344.24 -196.19,-224.39 -264.6,-702.23 -268.19,-998.51 -2.18,-179.65 -41.12,-351.38 -219.37,-412.78 -523.63,-180.36 -523.31,277.21 -658.17,551.82 -201.7,410.71 -650.44,761.09 -1111.03,784.2 -632.06,31.72 -599.65,-595.09 -420.54,-1019.32 99.03,-234.54 238.66,-527.05 413.42,-706.09 134.74,-138.04 275.19,-258.05 492.88,-239.41 357.98,30.64 319.72,562.93 268.09,794.16 -18.3,81.98 -76.23,241.55 -36.91,310.36 54.25,94.95 177.56,70.06 229.61,-29.61 253.91,-486.1 471.25,-915.2 122.77,-1383.05 -243.43,-326.83 -732.54,-390.35 -1118.9,-260.16 -378.63,127.6 -627.67,330.29 -858.94,629.01 -290.37,375.07 -568.93,1207.47 -495.94,1707.63 83.93,575.27 482.95,1082.73 1110,1028.16 489.37,-42.59 1084.31,-279.82 1479.22,-585.71z"/>
   <path class="fil2" d="M1386.04 2551.32c-40.34,65.95 -82.62,235.19 -159.79,261.89 -61.38,-115.96 -29.24,-302.98 -14.43,-431.35 -101.44,-33.47 -150.55,-118.74 -282.77,-114.9 -88.77,2.59 -180.36,71.71 -250.51,121.51 -99.65,70.76 -346.45,303.18 -416.72,331.73l-13.03 188.94c66.91,-25.49 199.72,-171.38 282.28,-226.99 126.15,-84.99 204.67,-128.98 360.82,-107.94 -153.99,-3.23 -558.74,354.23 -652.64,473.49 -3.49,290.74 115.68,580.95 330.65,761.53 264.11,221.85 478.97,244.19 805.25,129.48 507,-178.24 783.8,-1024.63 954.02,-1216.05 25.47,26.94 176.43,360.19 226.59,441.9 77.61,126.46 184.91,280.14 288.37,377.18 58.8,-153.4 381.23,-425.8 430.08,-546.75 -70.56,-46.13 -181.82,-81.83 -274.14,-143.42 -236.83,-158.03 -399.47,-376.36 -608.49,-577.1 167.29,22.31 669.51,625.35 910.49,695.21 43.83,-24.47 57.84,-33.22 74.99,-79.84 -100.68,-89.67 -248.91,-182.59 -359.9,-276.01 -107.88,-90.8 -227.33,-190.78 -340.39,-277.68 -408.51,-313.95 -423.74,-318.21 -749.5,3.91 -410.57,405.98 -791.03,878.36 -1183.67,1293.77 93.04,-168.47 225.53,-346.33 338.92,-502.53 62.62,-86.28 348.72,-435.73 369.51,-495.42l-65.98 -84.56z"/>
   <path class="fil3" d="M8045.94 3112.82c47.22,45.45 137.5,228.53 205.17,308.17 329.37,387.52 729.34,357.99 1152.26,336.38l15.35 -26.15c-8.26,-91.94 -22.65,-237.17 -39.45,-320.17 -455.39,13.63 -674.8,-177.04 -784.6,-598.84 -161.92,-621.99 44.55,-910.19 -345.24,-1025.63 -453.43,-134.3 -483.84,267.66 -555.05,443.73 -32.1,79.4 -69.38,151.32 -113.55,225.55 -281.09,472.33 -587.39,510.98 -728.76,608.74 -212.43,58.93 -489.88,129.47 -668.74,19.64 -200.3,-123.03 -180.77,-374.57 -164.18,-574.83 12.78,-154.34 42.69,-279.57 90.68,-405.72 105.66,-277.74 265.41,-566.6 486.44,-771.23 57.66,-53.38 127.09,-101.78 213.93,-134.2 529.65,-185.3 541.78,435.36 473.52,753.75 -21.22,98.99 -95.4,264.79 -26.85,341.71 40.24,45.14 116.88,51.91 166.27,17.36 49.61,-34.7 204.64,-381.9 232.57,-444.28 106.76,-238.49 171.02,-453.09 84.61,-718.32 -169.08,-518.94 -656.5,-697.15 -1167.34,-572.03 -909.13,222.65 -1460.18,1296.5 -1464.31,2151.48 -1.23,255.93 55.25,519.71 182.46,735.16 271.95,460.56 752.52,573.18 1270.66,454.01 895.17,-273.06 822.28,-430.86 1484.16,-804.26z"/>
   <path class="fil4" d="M1404.24 2514.73l70.9 98.33c59.97,-35.56 157.22,-173.74 212.35,-231.98 297.51,-314.3 470.43,-573.52 789.1,-361.2 381.97,254.51 807.46,782.21 927.99,848.48l67.7 -46.55c-34.06,-68.43 -190.89,-252.93 -288.65,-447.13 -97.63,-193.95 -147.86,-314.74 -210.69,-526.05 -71.83,-241.6 -278.01,-884.14 -459.02,-1029.2 -175.06,-140.29 -383.43,-106.07 -489.95,85.7 -94.47,170.09 -322.01,826.35 -410.88,1061.42 -58.87,155.7 -170.92,399.61 -208.85,548.19z"/>
   <path class="fil5" d="M3548.49 2892.71l-0.3 36.88c-162.67,89.85 -590.03,584.1 -692.19,623.02 88.34,114.76 326.04,269.49 470.52,329.64 207.82,86.53 444.37,117.57 670.76,85.56 404.15,-57.14 703.15,-345.88 851.23,-711.19 -57.97,-21.42 -111.08,-125.08 -153.46,-182.18 -46.98,-63.29 -98.12,-130.19 -150.15,-190.4 -78.02,-90.28 -239.96,-278.09 -360.47,-299.26 -26.39,148.4 -26.61,432.55 -179.74,506.66 -175.07,84.74 -347.15,-105 -456.2,-198.73z"/>
   <path class="fil6" d="M4742.7 1279.87c-41.99,-300.62 -54.02,-680.22 214.52,-888.88 135.57,-105.34 122.29,-284.45 -35.02,-302.96 -217.65,-25.6 -492.48,332.12 -550.69,513.49 -31.15,97.01 -85.84,336.4 -118.6,550.52 -28.35,185.38 -45.68,482.53 -51.42,674.24 -6.99,233.64 -4.81,524.69 -8.6,594.17 147.05,21.69 306.21,205.5 395.49,316.99 67.7,84.54 237.87,377.76 294.72,417.24 103.29,-189.07 76.68,-539.25 56.47,-750.76 -4.24,-44.4 -26.46,-197.5 -53.13,-352.12 -45.63,-264.55 -105.9,-501.07 -143.74,-771.92z"/>
   <path class="fil7" d="M1344.59 1299.68c19.13,-355.38 78.14,-567.52 -129.4,-890.42 -161.47,-251.21 -398.93,-356.19 -695.03,-395.04 -105.06,-13.79 -405.28,-36.44 -482.6,39.33 -48.47,47.5 -45.89,146.14 -15.76,207.07 80.74,163.25 543.85,-59.68 701.07,655.22 14.95,317.97 -6.53,565.76 -128.08,858.41 -84.76,204.08 -245.29,488.83 -272.98,704.87 131.44,-83.91 239.98,-203.71 390.16,-292.29 210.63,-124.25 325.47,-55.85 493.98,69.81l4.54 81.3 134.09 -1038.25z"/>
   <path class="fil8" d="M12929.9 3733.27c34.29,-71.51 51.09,-135.76 66.18,-268.76 19.97,-175.9 24.72,-367.62 31.11,-559.91 14.95,-449.78 75.8,-753.14 168.07,-1190.53 29.79,-141.26 77.77,-307.53 124.44,-445.94 54.94,-162.91 291.82,-669.21 482.8,-656.45 104.21,59.33 116.18,214.17 244.93,255.64 179.95,57.96 247.23,-114.96 199.8,-260.73 -85.53,-262.81 -423.74,-368.67 -661.22,-235.33 -530.06,297.59 -693.87,1251.37 -722.85,1307.02 -58.07,-107.53 -20,-354.32 -206.38,-717.24 -106.13,-206.68 -301.37,-371.14 -544.64,-389.26 -179.48,-13.36 -214.31,104.49 -181.36,259.59 68.23,314.21 131.05,568.13 173.46,853.46 36.85,247.97 52.99,471.18 61.32,720.61 6.43,191.9 11.28,381.25 15.05,573.24 3.02,154.17 -2.82,312.32 11.88,465.36 20.47,212.79 63.52,427.65 267.14,499.15 208.27,73.11 377.24,-16.03 470.25,-209.91z"/>
   <path class="fil9" d="M12000.84 4086.29c-24.88,15.32 -263.66,94.9 -334.08,126.68 -104.97,47.37 -203.79,102.28 -306.8,149.48 -279.84,128.21 -474.96,131.7 -780.32,103.1l-39.87 17.58c101.97,95.16 559.11,70.58 704.05,28.33 408.34,-119 750.04,-425.17 1309.72,-352.72 262.43,33.98 407.07,130.96 633,204.97 -91.96,-107.56 -360.89,-227.33 -500.04,-266.56 -226.65,-63.87 -337.04,-64.87 -507.44,-39.95"/>
   <path class="fil10" d="M8045.94 3112.82c47.22,45.45 137.5,228.53 205.17,308.17 329.37,387.52 729.34,357.99 1152.26,336.38l15.35 -26.15c-8.26,-91.94 -22.65,-237.17 -39.45,-320.17 -455.39,13.63 -674.8,-177.04 -784.6,-598.84 -161.92,-621.99 44.55,-910.19 -345.24,-1025.63 -453.43,-134.3 -483.84,267.66 -555.05,443.73 -32.1,79.4 -69.38,151.32 -113.55,225.55 -281.09,472.33 -587.39,510.98 -728.76,608.74 -212.43,58.93 -489.88,129.47 -668.74,19.64 -200.3,-123.03 -180.77,-374.57 -164.18,-574.83 12.78,-154.34 42.69,-279.57 90.68,-405.72 105.66,-277.74 265.41,-566.6 486.44,-771.23 57.66,-53.38 127.09,-101.78 213.93,-134.2 529.65,-185.3 541.78,435.36 473.52,753.75 -21.22,98.99 -95.4,264.79 -26.85,341.71 40.24,45.14 116.88,51.91 166.27,17.36 49.61,-34.7 204.64,-381.9 232.57,-444.28 106.76,-238.49 171.02,-453.09 84.61,-718.32 -169.08,-518.94 -656.5,-697.15 -1167.34,-572.03 -909.13,222.65 -1460.18,1296.5 -1464.31,2151.48 -1.23,255.93 55.25,519.71 182.46,735.16 271.95,460.56 752.52,573.18 1270.66,454.01 895.17,-273.06 822.28,-430.86 1484.16,-804.26z"/>
  </g>
 </g>
</svg>
